<?xml version="1.0" encoding="utf-8"?>
<!-- Generator: Adobe Illustrator 21.0.0, SVG Export Plug-In . SVG Version: 6.00 Build 0)  -->
<svg version="1.1" id="Layer_1" xmlns="http://www.w3.org/2000/svg" xmlns:xlink="http://www.w3.org/1999/xlink" x="0px" y="0px"
	 viewBox="0 0 133.9 53.2" style="enable-background:new 0 0 133.9 53.2;" xml:space="preserve">
<style type="text/css">
	.st0{fill:#FFFFFF;}
</style>
<g>
	<g>
		<polygon class="st0" points="4.8,7 4.9,7 11.5,24.9 18.3,24.9 18.3,0.4 13.5,0.4 13.5,17.4 13.4,17.4 6.9,0.4 0,0.4 0,24.9 
			4.8,24.9 		"/>
		<path class="st0" d="M30.8,21.6c-2.9,0-3.3-2.7-3.3-9c0-6.3,0.4-9,3.3-9c1.5,0,2.1,1.2,2.1,4.5h5C38.1,2.9,36,0,30.8,0
			c-8.4,0-8.4,6.2-8.4,12.7c0,6.4,0,12.7,8.4,12.7c4.8,0,7.4-2.1,7.4-8.6h-5.1C33.1,18.6,33.2,21.6,30.8,21.6z"/>
		<path class="st0" d="M64.2,18.2c0-7.7-10.3-7.3-10.3-11.9c0-1.7,1-2.6,2.6-2.6c2.1,0,2.4,1.9,2.4,3.7h5C64.2,2.2,61.8,0,56.8,0
			c-6.2,0-8.1,3.1-8.1,6.9c0,7.3,10.3,7.6,10.3,12c0,1.7-0.8,2.8-2.6,2.8c-2.8,0-2.9-2-2.9-4.3h-5.1c-0.3,4.2,0.9,8,7.3,8
			C59.5,25.3,64.2,24.6,64.2,18.2z"/>
		<polygon class="st0" points="71.6,24.9 76.8,24.9 76.8,4.5 82.5,4.5 82.5,0.4 65.9,0.4 65.9,4.5 71.6,4.5 		"/>
		<path class="st0" d="M87.7,0.4l-6.8,24.5H86l1.4-5.4h7l1.3,5.4h5.4L94.5,0.4H87.7z M88.4,15.7l2.3-10.6h0.1l2.5,10.6H88.4z"/>
		<polygon class="st0" points="110.3,24.9 110.3,4.5 116,4.5 116,0.4 99.5,0.4 99.5,4.5 105.2,4.5 105.2,24.9 		"/>
		<polygon class="st0" points="132.1,21.1 123.6,21.1 123.6,14 131.2,14 131.2,10.2 123.6,10.2 123.6,4.2 131.8,4.2 131.8,0.4 
			118.4,0.4 118.4,24.9 132.1,24.9 		"/>
		<path class="st0" d="M9.9,45.3c0,2.6,0,6.3-4.1,6.3c-4.1,0-4.1-3.7-4.1-6.3V32.7H0v13.9c0,5.2,2.7,6.5,5.9,6.5
			c3.1,0,5.9-1.4,5.9-6.5V32.7H9.9V45.3z"/>
		<polygon class="st0" points="27.9,50.3 27.8,50.3 19.7,32.7 17,32.7 17,52.8 18.7,52.8 18.7,35 18.8,35 26.9,52.8 29.6,52.8 
			29.6,32.7 27.9,32.7 		"/>
		<rect x="35.2" y="32.7" class="st0" width="1.8" height="20"/>
		<polygon class="st0" points="47.4,50.7 47.3,50.7 42.6,32.7 40.7,32.7 46.3,52.8 48.5,52.8 54,32.7 52.3,32.7 		"/>
		<polygon class="st0" points="59.4,43.2 66.4,43.2 66.4,41.7 59.4,41.7 59.4,34.2 66.7,34.2 66.7,32.7 57.6,32.7 57.6,52.8 
			66.9,52.8 66.9,51.3 59.4,51.3 		"/>
		<path class="st0" d="M78.3,42.4L78.3,42.4c2.7-0.7,3.1-2.3,3.1-4.8c0-3.5-1-4.8-4.8-4.8H71v20h1.8v-9.7h3.4c3.8,0,3.3,3.9,3.3,4.7
			c0,1.1,0.1,4.4,0.3,5h1.7c-0.1-0.8-0.2-1.5-0.2-2.3C81.2,43.3,81.1,42.9,78.3,42.4z M75.7,41.6h-2.9v-7.3h3.6
			c2.1,0,3.2,0.5,3.2,3.3C79.6,40.9,78.3,41.6,75.7,41.6z"/>
		<path class="st0" d="M91.6,41.6c-2.3-1.6-3.8-1.7-3.8-4.7c0-2.4,1.4-3.1,3.5-3.1c2.7,0,3.3,1.5,3.4,4h1.8c0-2.9-0.9-5.5-5-5.5
			c-3.3,0-5.5,1.4-5.4,4.9c0,2,0.2,3.2,4.1,5.6c2.9,1.8,4.7,2.5,4.7,5.3c0,2.3-1.1,3.6-3.5,3.6c-3.6,0-3.7-2.3-3.7-4.5h-1.8
			c-0.2,3.9,1.6,6,5.5,6c3.5,0,5.3-1.7,5.3-5.3C96.6,43.9,94,43.4,91.6,41.6z"/>
		<rect x="101.6" y="32.7" class="st0" width="1.8" height="20"/>
		<polygon class="st0" points="107.2,34.2 112.1,34.2 112.1,52.8 113.8,52.8 113.8,34.2 118.7,34.2 118.7,32.7 107.2,32.7 		"/>
		<polygon class="st0" points="132.1,32.7 127.3,42.7 122.7,32.7 120.7,32.7 126.4,44.4 126.4,52.8 128.2,52.8 128.2,44.4 
			133.9,32.7 		"/>
	</g>
</g>
</svg>