<?xml version="1.0" encoding="utf-8"?>
<!-- Generator: Adobe Illustrator 16.0.0, SVG Export Plug-In . SVG Version: 6.00 Build 0)  -->
<!DOCTYPE svg PUBLIC "-//W3C//DTD SVG 1.1//EN" "http://www.w3.org/Graphics/SVG/1.1/DTD/svg11.dtd">
<svg version="1.1" id="Layer_1" xmlns="http://www.w3.org/2000/svg" xmlns:xlink="http://www.w3.org/1999/xlink" x="0px" y="0px"
	 width="350.234px" height="94px" viewBox="0 0 350.234 94" enable-background="new 0 0 350.234 94" xml:space="preserve">
<linearGradient id="SVGID_1_" gradientUnits="userSpaceOnUse" x1="47" y1="0" x2="47" y2="94">
	<stop  offset="0" style="stop-color:#E1DCE6"/>
	<stop  offset="0.0911" style="stop-color:#C6C1DC"/>
	<stop  offset="0.3395" style="stop-color:#807DC4"/>
	<stop  offset="0.5635" style="stop-color:#4947B0"/>
	<stop  offset="0.7552" style="stop-color:#2121A2"/>
	<stop  offset="0.9069" style="stop-color:#090999"/>
	<stop  offset="1" style="stop-color:#000096"/>
</linearGradient>
<polygon fill="url(#SVGID_1_)" points="0,46.999 47,94 94,46.999 47,0 "/>
<path fill="#FFFFFF" d="M66.992,40.231H22.308c-0.519,0-0.94-0.421-0.94-0.939c0-0.52,0.422-0.94,0.94-0.94h44.685
	c0.519,0,0.938,0.421,0.938,0.94C67.931,39.811,67.511,40.231,66.992,40.231z"/>
<path fill="#FFFFFF" d="M66.992,47.939H29.999c-0.519,0-0.939-0.42-0.939-0.94c0-0.519,0.421-0.938,0.939-0.938h36.993
	c0.519,0,0.938,0.42,0.938,0.938C67.931,47.52,67.511,47.939,66.992,47.939z"/>
<path fill="#FFFFFF" d="M66.992,55.648H37.733c-0.519,0-0.939-0.421-0.939-0.94s0.421-0.94,0.939-0.94h29.259
	c0.519,0,0.938,0.421,0.938,0.94S67.511,55.648,66.992,55.648z"/>
<linearGradient id="SVGID_2_" gradientUnits="userSpaceOnUse" x1="59.001" y1="59.6904" x2="59.001" y2="34.3096">
	<stop  offset="0" style="stop-color:#E1DCE6"/>
	<stop  offset="1" style="stop-color:#000096"/>
</linearGradient>
<path fill="url(#SVGID_2_)" d="M46.311,46.999c0,7.01,5.683,12.691,12.691,12.691c7.008,0,12.689-5.682,12.689-12.691
	c0-7.008-5.682-12.689-12.689-12.689C51.993,34.31,46.311,39.991,46.311,46.999"/>
<g>
	<path d="M133.247,39.261h-6.477c-0.367-3.215-2.159-5.236-5.466-5.236c-2.527,0-4.457,1.194-4.457,3.766
		c0,2.665,1.7,3.997,6.753,5.191c6.982,1.607,10.105,4.822,10.105,9.921c0,5.972-5.466,9.372-11.713,9.372
		c-7.579,0-12.54-3.354-13.138-10.014h6.478c0.689,3.49,3.353,5.282,6.567,5.282c2.895,0,5.191-1.562,5.191-3.997
		c0-2.664-1.653-4.226-6.339-5.328c-6.477-1.562-10.564-3.812-10.564-9.646s5.282-9.278,11.345-9.278
		C129.113,29.293,132.558,33.61,133.247,39.261z"/>
	<path d="M138.345,61.631V29.936h6.339v31.695H138.345z"/>
	<path d="M178.308,45.462v16.169h-5.099l-0.414-5.145l-1.424,3.215c-1.792,1.746-4.226,2.573-7.718,2.573
		c-8.819,0-14.377-6.247-14.377-16.307c0-10.382,6.752-16.675,15.617-16.675c8.591,0,13.047,4.685,13.689,10.933l0.045,0.459h-6.338
		l-0.092-0.459c-0.781-3.905-3.17-6.201-7.396-6.201c-5.145,0-8.818,4.363-8.818,11.575c0,7.9,3.674,11.943,8.635,11.943
		c4.088,0,6.982-2.665,7.626-7.12h-6.707v-4.961H178.308z"/>
	<path d="M218.361,61.631h-6.339V46.979c0-3.309,0-7.534,0.092-10.841c-0.781,3.307-1.93,7.532-2.939,10.794l-4.457,14.699h-6.89
		l-4.547-14.745c-0.965-3.216-2.113-7.441-2.849-10.702c0.092,3.307,0.092,7.486,0.092,10.795v14.652h-6.339V29.936H194.2
		l7.165,25.861l7.166-25.861h9.83V61.631z"/>
	<path d="M254.326,45.783c0,9.922-5.926,16.491-15.664,16.491c-9.784,0-15.663-6.569-15.663-16.491
		c0-9.968,5.879-16.49,15.663-16.49C248.4,29.293,254.326,35.815,254.326,45.783z M247.666,45.783
		c0-7.441-3.399-11.759-9.004-11.759c-5.649,0-9.049,4.317-9.049,11.759c0,7.396,3.399,11.76,9.049,11.76
		C244.267,57.543,247.666,53.179,247.666,45.783z"/>
	<path d="M283.678,52.168c0,5.88-4.455,8.682-8.682,9.279c-1.607,0.184-2.618,0.184-4.41,0.184h-11.529V29.936h11.346
		c1.608,0,2.527,0,4.088,0.185c5.145,0.643,7.993,3.628,7.993,7.9c0,3.262-1.746,5.42-4.915,6.522
		C281.656,45.6,283.678,48.08,283.678,52.168z M265.396,42.935h4.777c0.781,0,1.516-0.046,2.251-0.138
		c2.296-0.367,3.444-1.652,3.444-3.95c0-2.389-1.47-3.536-3.582-3.812c-0.735-0.093-1.562-0.139-2.297-0.139h-4.594V42.935z
		 M277.018,52.215c0-2.94-1.792-4.181-4.088-4.411c-0.781-0.092-1.517-0.138-2.252-0.138h-5.282v8.958h5.512
		c0.735,0,1.517,0,2.114-0.046C275.226,56.395,277.018,54.878,277.018,52.215z"/>
	<path d="M288.454,61.631V29.936h6.338v31.695H288.454z"/>
	<path d="M323.868,61.631h-22.874V29.936h6.338v26.413h16.536V61.631z"/>
	<path d="M350.234,61.631h-22.876V29.936h22.416v4.961h-16.077v8.36h14.929v5.007h-14.929v8.36h16.537V61.631z"/>
</g>
</svg>
